<?xml version="1.0" encoding="UTF-8" standalone="no"?>
<!DOCTYPE svg PUBLIC "-//W3C//DTD SVG 1.1//EN"
 "http://www.w3.org/Graphics/SVG/1.1/DTD/svg11.dtd">
<!-- Generated by graphviz version 2.40.1 (20161225.0304)
 -->
<!-- Title: dependencies Pages: 1 -->
<svg width="2894pt" height="284pt"
 viewBox="0.00 0.00 2894.00 284.00" xmlns="http://www.w3.org/2000/svg" xmlns:xlink="http://www.w3.org/1999/xlink">
<g id="graph0" class="graph" transform="scale(1 1) rotate(0) translate(4 280)">
<title>dependencies</title>
<polygon fill="#ffffff" stroke="transparent" points="-4,4 -4,-280 2890,-280 2890,4 -4,4"/>
<text text-anchor="start" x="1422.0091" y="-42.4" font-family="sans-serif" font-weight="bold" font-size="14.00" fill="#000000">Legend</text>
<polygon fill="#ffffb3" stroke="transparent" points="1209,-10 1209,-30 1229,-30 1229,-10 1209,-10"/>
<text text-anchor="start" x="1232.629" y="-15.4" font-family="sans-serif" font-size="14.00" fill="#000000"> &#160;Declarations</text>
<polygon fill="#8dd3c7" stroke="transparent" points="1322,-10 1322,-30 1342,-30 1342,-10 1322,-10"/>
<text text-anchor="start" x="1345.7251" y="-15.4" font-family="sans-serif" font-size="14.00" fill="#000000"> &#160;Module</text>
<polygon fill="#80b1d3" stroke="transparent" points="1408,-10 1408,-30 1428,-30 1428,-10 1408,-10"/>
<text text-anchor="start" x="1431.7812" y="-15.4" font-family="sans-serif" font-size="14.00" fill="#000000"> &#160;Bootstrap</text>
<polygon fill="#fdb462" stroke="transparent" points="1505,-10 1505,-30 1525,-30 1525,-10 1505,-10"/>
<text text-anchor="start" x="1528.6732" y="-15.4" font-family="sans-serif" font-size="14.00" fill="#000000"> &#160;Providers</text>
<polygon fill="#fb8072" stroke="transparent" points="1601,-10 1601,-30 1621,-30 1621,-10 1601,-10"/>
<text text-anchor="start" x="1624.7258" y="-15.4" font-family="sans-serif" font-size="14.00" fill="#000000"> &#160;Exports</text>
<g id="clust1" class="cluster">
<title>cluster_AppModule</title>
<polygon fill="none" stroke="#000000" stroke-dasharray="1,5" points="8,-70 8,-268 2878,-268 2878,-70 8,-70"/>
</g>
<g id="clust2" class="cluster">
<title>cluster_AppModule_declarations</title>
<polygon fill="none" stroke="#000000" points="1053,-78 1053,-130 2870,-130 2870,-78 1053,-78"/>
</g>
<g id="clust14" class="cluster">
<title>cluster_AppModule_imports</title>
<polygon fill="none" stroke="#000000" points="398,-78 398,-130 1045,-130 1045,-78 398,-78"/>
</g>
<g id="clust16" class="cluster">
<title>cluster_AppModule_bootstrap</title>
<polygon fill="none" stroke="#000000" points="1340,-208 1340,-260 1464,-260 1464,-208 1340,-208"/>
</g>
<g id="clust17" class="cluster">
<title>cluster_AppModule_providers</title>
<polygon fill="none" stroke="#000000" points="16,-78 16,-130 390,-130 390,-78 16,-78"/>
</g>
<!-- AppComponent -->
<g id="node1" class="node">
<title>AppComponent</title>
<polygon fill="#ffffb3" stroke="#000000" points="2861.9399,-122 2756.0601,-122 2756.0601,-86 2861.9399,-86 2861.9399,-122"/>
<text text-anchor="middle" x="2809" y="-99.8" font-family="Times,serif" font-size="14.00" fill="#000000">AppComponent</text>
</g>
<!-- AppModule -->
<g id="node12" class="node">
<title>AppModule</title>
<polygon fill="#8dd3c7" stroke="#000000" points="1443.6571,-187 1440.6571,-191 1419.6571,-191 1416.6571,-187 1360.3429,-187 1360.3429,-151 1443.6571,-151 1443.6571,-187"/>
<text text-anchor="middle" x="1402" y="-164.8" font-family="Times,serif" font-size="14.00" fill="#000000">AppModule</text>
</g>
<!-- AppComponent&#45;&gt;AppModule -->
<g id="edge1" class="edge">
<title>AppComponent&#45;&gt;AppModule</title>
<path fill="none" stroke="#000000" d="M2809,-122.3228C2809,-145.6602 2809,-183 2809,-183 2809,-183 1453.727,-183 1453.727,-183"/>
<polygon fill="#000000" stroke="#000000" points="1453.727,-179.5001 1443.727,-183 1453.7269,-186.5001 1453.727,-179.5001"/>
</g>
<!-- HeaderComponent -->
<g id="node2" class="node">
<title>HeaderComponent</title>
<polygon fill="#ffffb3" stroke="#000000" points="2737.7437,-122 2616.2563,-122 2616.2563,-86 2737.7437,-86 2737.7437,-122"/>
<text text-anchor="middle" x="2677" y="-99.8" font-family="Times,serif" font-size="14.00" fill="#000000">HeaderComponent</text>
</g>
<!-- HeaderComponent&#45;&gt;AppModule -->
<g id="edge2" class="edge">
<title>HeaderComponent&#45;&gt;AppModule</title>
<path fill="none" stroke="#000000" d="M2677,-122.1554C2677,-144.3519 2677,-179 2677,-179 2677,-179 1453.6966,-179 1453.6966,-179"/>
<polygon fill="#000000" stroke="#000000" points="1453.6967,-175.5001 1443.6966,-179 1453.6966,-182.5001 1453.6967,-175.5001"/>
</g>
<!-- InventoryComponent -->
<g id="node3" class="node">
<title>InventoryComponent</title>
<polygon fill="#ffffb3" stroke="#000000" points="2597.759,-122 2462.241,-122 2462.241,-86 2597.759,-86 2597.759,-122"/>
<text text-anchor="middle" x="2530" y="-99.8" font-family="Times,serif" font-size="14.00" fill="#000000">InventoryComponent</text>
</g>
<!-- InventoryComponent&#45;&gt;AppModule -->
<g id="edge3" class="edge">
<title>InventoryComponent&#45;&gt;AppModule</title>
<path fill="none" stroke="#000000" d="M2530,-122.2843C2530,-143.3211 2530,-175 2530,-175 2530,-175 1453.8214,-175 1453.8214,-175"/>
<polygon fill="#000000" stroke="#000000" points="1453.8215,-171.5001 1443.8214,-175 1453.8214,-178.5001 1453.8215,-171.5001"/>
</g>
<!-- ShoppingListComponent -->
<g id="node4" class="node">
<title>ShoppingListComponent</title>
<polygon fill="#ffffb3" stroke="#000000" points="2444.2841,-122 2287.7159,-122 2287.7159,-86 2444.2841,-86 2444.2841,-122"/>
<text text-anchor="middle" x="2366" y="-99.8" font-family="Times,serif" font-size="14.00" fill="#000000">ShoppingListComponent</text>
</g>
<!-- ShoppingListComponent&#45;&gt;AppModule -->
<g id="edge4" class="edge">
<title>ShoppingListComponent&#45;&gt;AppModule</title>
<path fill="none" stroke="#000000" d="M2366,-122.308C2366,-142.1455 2366,-171 2366,-171 2366,-171 1453.7313,-171 1453.7313,-171"/>
<polygon fill="#000000" stroke="#000000" points="1453.7313,-167.5001 1443.7313,-171 1453.7313,-174.5001 1453.7313,-167.5001"/>
</g>
<!-- InventoryListComponent -->
<g id="node5" class="node">
<title>InventoryListComponent</title>
<polygon fill="#ffffb3" stroke="#000000" points="2269.5379,-122 2112.4621,-122 2112.4621,-86 2269.5379,-86 2269.5379,-122"/>
<text text-anchor="middle" x="2191" y="-99.8" font-family="Times,serif" font-size="14.00" fill="#000000">InventoryListComponent</text>
</g>
<!-- InventoryListComponent&#45;&gt;AppModule -->
<g id="edge5" class="edge">
<title>InventoryListComponent&#45;&gt;AppModule</title>
<path fill="none" stroke="#000000" d="M2191,-122.2222C2191,-140.8285 2191,-167 2191,-167 2191,-167 1453.863,-167 1453.863,-167"/>
<polygon fill="#000000" stroke="#000000" points="1453.863,-163.5001 1443.863,-167 1453.863,-170.5001 1453.863,-163.5001"/>
</g>
<!-- InventoryItemComponent -->
<g id="node6" class="node">
<title>InventoryItemComponent</title>
<polygon fill="#ffffb3" stroke="#000000" points="2094.9157,-122 1933.0843,-122 1933.0843,-86 2094.9157,-86 2094.9157,-122"/>
<text text-anchor="middle" x="2014" y="-99.8" font-family="Times,serif" font-size="14.00" fill="#000000">InventoryItemComponent</text>
</g>
<!-- InventoryItemComponent&#45;&gt;AppModule -->
<g id="edge6" class="edge">
<title>InventoryItemComponent&#45;&gt;AppModule</title>
<path fill="none" stroke="#000000" d="M2014,-122.0225C2014,-139.3734 2014,-163 2014,-163 2014,-163 1454.0652,-163 1454.0652,-163"/>
<polygon fill="#000000" stroke="#000000" points="1454.0653,-159.5001 1444.0652,-163 1454.0652,-166.5001 1454.0653,-159.5001"/>
</g>
<!-- ShoppingEditComponent -->
<g id="node7" class="node">
<title>ShoppingEditComponent</title>
<polygon fill="#ffffb3" stroke="#000000" points="1915.3398,-122 1756.6602,-122 1756.6602,-86 1915.3398,-86 1915.3398,-122"/>
<text text-anchor="middle" x="1836" y="-99.8" font-family="Times,serif" font-size="14.00" fill="#000000">ShoppingEditComponent</text>
</g>
<!-- ShoppingEditComponent&#45;&gt;AppModule -->
<g id="edge7" class="edge">
<title>ShoppingEditComponent&#45;&gt;AppModule</title>
<path fill="none" stroke="#000000" d="M1836,-122.0091C1836,-138.0494 1836,-159 1836,-159 1836,-159 1454.0081,-159 1454.0081,-159"/>
<polygon fill="#000000" stroke="#000000" points="1454.0081,-155.5001 1444.0081,-159 1454.0081,-162.5001 1454.0081,-155.5001"/>
</g>
<!-- InventoryDetailComponent -->
<g id="node8" class="node">
<title>InventoryDetailComponent</title>
<polygon fill="#ffffb3" stroke="#000000" points="1738.9664,-122 1569.0336,-122 1569.0336,-86 1738.9664,-86 1738.9664,-122"/>
<text text-anchor="middle" x="1654" y="-99.8" font-family="Times,serif" font-size="14.00" fill="#000000">InventoryDetailComponent</text>
</g>
<!-- InventoryDetailComponent&#45;&gt;AppModule -->
<g id="edge8" class="edge">
<title>InventoryDetailComponent&#45;&gt;AppModule</title>
<path fill="none" stroke="#000000" d="M1654,-122.1243C1654,-136.7832 1654,-155 1654,-155 1654,-155 1453.8956,-155 1453.8956,-155"/>
<polygon fill="#000000" stroke="#000000" points="1453.8956,-151.5001 1443.8956,-155 1453.8955,-158.5001 1453.8956,-151.5001"/>
</g>
<!-- DropDownDirective -->
<g id="node9" class="node">
<title>DropDownDirective</title>
<polygon fill="#ffffb3" stroke="#000000" points="1550.5632,-122 1419.4368,-122 1419.4368,-86 1550.5632,-86 1550.5632,-122"/>
<text text-anchor="middle" x="1485" y="-99.8" font-family="Times,serif" font-size="14.00" fill="#000000">DropDownDirective</text>
</g>
<!-- DropDownDirective&#45;&gt;AppModule -->
<g id="edge9" class="edge">
<title>DropDownDirective&#45;&gt;AppModule</title>
<path fill="none" stroke="#000000" d="M1431.6483,-122.1061C1431.6483,-122.1061 1431.6483,-140.991 1431.6483,-140.991"/>
<polygon fill="#000000" stroke="#000000" points="1428.1484,-140.9909 1431.6483,-150.991 1435.1484,-140.991 1428.1484,-140.9909"/>
</g>
<!-- InventoryStartComponent -->
<g id="node10" class="node">
<title>InventoryStartComponent</title>
<polygon fill="#ffffb3" stroke="#000000" points="1401.1979,-122 1238.8021,-122 1238.8021,-86 1401.1979,-86 1401.1979,-122"/>
<text text-anchor="middle" x="1320" y="-99.8" font-family="Times,serif" font-size="14.00" fill="#000000">InventoryStartComponent</text>
</g>
<!-- InventoryStartComponent&#45;&gt;AppModule -->
<g id="edge10" class="edge">
<title>InventoryStartComponent&#45;&gt;AppModule</title>
<path fill="none" stroke="#000000" d="M1380.6354,-122.1061C1380.6354,-122.1061 1380.6354,-140.991 1380.6354,-140.991"/>
<polygon fill="#000000" stroke="#000000" points="1377.1354,-140.9909 1380.6354,-150.991 1384.1354,-140.991 1377.1354,-140.9909"/>
</g>
<!-- InventoryEditComponent -->
<g id="node11" class="node">
<title>InventoryEditComponent</title>
<polygon fill="#ffffb3" stroke="#000000" points="1220.5926,-122 1061.4074,-122 1061.4074,-86 1220.5926,-86 1220.5926,-122"/>
<text text-anchor="middle" x="1141" y="-99.8" font-family="Times,serif" font-size="14.00" fill="#000000">InventoryEditComponent</text>
</g>
<!-- InventoryEditComponent&#45;&gt;AppModule -->
<g id="edge11" class="edge">
<title>InventoryEditComponent&#45;&gt;AppModule</title>
<path fill="none" stroke="#000000" d="M1141,-122.1243C1141,-136.7832 1141,-155 1141,-155 1141,-155 1350.0658,-155 1350.0658,-155"/>
<polygon fill="#000000" stroke="#000000" points="1350.0659,-158.5001 1360.0658,-155 1350.0658,-151.5001 1350.0659,-158.5001"/>
</g>
<!-- AppComponent  -->
<g id="node18" class="node">
<title>AppComponent </title>
<polygon fill="#80b1d3" stroke="#000000" points="1456.439,-252 1347.561,-252 1347.561,-216 1456.439,-216 1456.439,-252"/>
<text text-anchor="middle" x="1402" y="-229.8" font-family="Times,serif" font-size="14.00" fill="#000000">AppComponent </text>
</g>
<!-- AppModule&#45;&gt;AppComponent  -->
<g id="edge17" class="edge">
<title>AppModule&#45;&gt;AppComponent </title>
<path fill="none" stroke="#000000" stroke-dasharray="1,5" d="M1402,-187.1061C1402,-187.1061 1402,-205.991 1402,-205.991"/>
<polygon fill="#000000" stroke="#000000" points="1398.5001,-205.9909 1402,-215.991 1405.5001,-205.991 1398.5001,-205.9909"/>
</g>
<!-- BrowserModule -->
<g id="node13" class="node">
<title>BrowserModule</title>
<polygon fill="#8dd3c7" stroke="#000000" points="1037.4734,-122 1034.4734,-126 1013.4734,-126 1010.4734,-122 930.5266,-122 930.5266,-86 1037.4734,-86 1037.4734,-122"/>
<text text-anchor="middle" x="984" y="-99.8" font-family="Times,serif" font-size="14.00" fill="#000000">BrowserModule</text>
</g>
<!-- BrowserModule&#45;&gt;AppModule -->
<g id="edge12" class="edge">
<title>BrowserModule&#45;&gt;AppModule</title>
<path fill="none" stroke="#000000" d="M984,-122.0091C984,-138.0494 984,-159 984,-159 984,-159 1350.0067,-159 1350.0067,-159"/>
<polygon fill="#000000" stroke="#000000" points="1350.0068,-162.5001 1360.0067,-159 1350.0067,-155.5001 1350.0068,-162.5001"/>
</g>
<!-- FormsModule -->
<g id="node14" class="node">
<title>FormsModule</title>
<polygon fill="#8dd3c7" stroke="#000000" points="912.8288,-122 909.8288,-126 888.8288,-126 885.8288,-122 817.1712,-122 817.1712,-86 912.8288,-86 912.8288,-122"/>
<text text-anchor="middle" x="865" y="-99.8" font-family="Times,serif" font-size="14.00" fill="#000000">FormsModule</text>
</g>
<!-- FormsModule&#45;&gt;AppModule -->
<g id="edge13" class="edge">
<title>FormsModule&#45;&gt;AppModule</title>
<path fill="none" stroke="#000000" d="M865,-122.0225C865,-139.3734 865,-163 865,-163 865,-163 1350.3094,-163 1350.3094,-163"/>
<polygon fill="#000000" stroke="#000000" points="1350.3094,-166.5001 1360.3094,-163 1350.3093,-159.5001 1350.3094,-166.5001"/>
</g>
<!-- ReactiveFormsModule -->
<g id="node15" class="node">
<title>ReactiveFormsModule</title>
<polygon fill="#8dd3c7" stroke="#000000" points="799.3047,-122 796.3047,-126 775.3047,-126 772.3047,-122 654.6953,-122 654.6953,-86 799.3047,-86 799.3047,-122"/>
<text text-anchor="middle" x="727" y="-99.8" font-family="Times,serif" font-size="14.00" fill="#000000">ReactiveFormsModule</text>
</g>
<!-- ReactiveFormsModule&#45;&gt;AppModule -->
<g id="edge14" class="edge">
<title>ReactiveFormsModule&#45;&gt;AppModule</title>
<path fill="none" stroke="#000000" d="M727,-122.2222C727,-140.8285 727,-167 727,-167 727,-167 1350.2851,-167 1350.2851,-167"/>
<polygon fill="#000000" stroke="#000000" points="1350.2852,-170.5001 1360.2851,-167 1350.2851,-163.5001 1350.2852,-170.5001"/>
</g>
<!-- HttpModule -->
<g id="node16" class="node">
<title>HttpModule</title>
<polygon fill="#8dd3c7" stroke="#000000" points="637.4387,-122 634.4387,-126 613.4387,-126 610.4387,-122 552.5613,-122 552.5613,-86 637.4387,-86 637.4387,-122"/>
<text text-anchor="middle" x="595" y="-99.8" font-family="Times,serif" font-size="14.00" fill="#000000">HttpModule</text>
</g>
<!-- HttpModule&#45;&gt;AppModule -->
<g id="edge15" class="edge">
<title>HttpModule&#45;&gt;AppModule</title>
<path fill="none" stroke="#000000" d="M595,-122.308C595,-142.1455 595,-171 595,-171 595,-171 1350.3115,-171 1350.3115,-171"/>
<polygon fill="#000000" stroke="#000000" points="1350.3116,-174.5001 1360.3115,-171 1350.3115,-167.5001 1350.3116,-174.5001"/>
</g>
<!-- AppRoutingModule -->
<g id="node17" class="node">
<title>AppRoutingModule</title>
<polygon fill="#8dd3c7" stroke="#000000" points="534.2744,-122 531.2744,-126 510.2744,-126 507.2744,-122 405.7256,-122 405.7256,-86 534.2744,-86 534.2744,-122"/>
<text text-anchor="middle" x="470" y="-99.8" font-family="Times,serif" font-size="14.00" fill="#000000">AppRoutingModule</text>
</g>
<!-- AppRoutingModule&#45;&gt;AppModule -->
<g id="edge16" class="edge">
<title>AppRoutingModule&#45;&gt;AppModule</title>
<path fill="none" stroke="#000000" d="M470,-122.2843C470,-143.3211 470,-175 470,-175 470,-175 1350.1433,-175 1350.1433,-175"/>
<polygon fill="#000000" stroke="#000000" points="1350.1433,-178.5001 1360.1433,-175 1350.1433,-171.5001 1350.1433,-178.5001"/>
</g>
<!-- ShoppingListService -->
<g id="node19" class="node">
<title>ShoppingListService</title>
<ellipse fill="#fdb462" stroke="#000000" cx="290" cy="-104" rx="92.0741" ry="18"/>
<text text-anchor="middle" x="290" y="-99.8" font-family="Times,serif" font-size="14.00" fill="#000000">ShoppingListService</text>
</g>
<!-- ShoppingListService&#45;&gt;AppModule -->
<g id="edge18" class="edge">
<title>ShoppingListService&#45;&gt;AppModule</title>
<path fill="none" stroke="#000000" d="M290,-122.1554C290,-144.3519 290,-179 290,-179 290,-179 1350.1026,-179 1350.1026,-179"/>
<polygon fill="#000000" stroke="#000000" points="1350.1026,-182.5001 1360.1026,-179 1350.1025,-175.5001 1350.1026,-182.5001"/>
</g>
<!-- InventoryService -->
<g id="node20" class="node">
<title>InventoryService</title>
<ellipse fill="#fdb462" stroke="#000000" cx="102" cy="-104" rx="77.5685" ry="18"/>
<text text-anchor="middle" x="102" y="-99.8" font-family="Times,serif" font-size="14.00" fill="#000000">InventoryService</text>
</g>
<!-- InventoryService&#45;&gt;AppModule -->
<g id="edge19" class="edge">
<title>InventoryService&#45;&gt;AppModule</title>
<path fill="none" stroke="#000000" d="M102,-122.3228C102,-145.6602 102,-183 102,-183 102,-183 1350.219,-183 1350.219,-183"/>
<polygon fill="#000000" stroke="#000000" points="1350.2191,-186.5001 1360.219,-183 1350.219,-179.5001 1350.2191,-186.5001"/>
</g>
</g>
</svg>
