<?xml version="1.0" encoding="UTF-8" standalone="no"?>
<!DOCTYPE svg PUBLIC "-//W3C//DTD SVG 1.1//EN"
 "http://www.w3.org/Graphics/SVG/1.1/DTD/svg11.dtd">
<!-- Generated by graphviz version 2.40.1 (20161225.0304)
 -->
<!-- Title: dependencies Pages: 1 -->
<svg width="1031pt" height="290pt"
 viewBox="0.00 0.00 1031.00 290.00" xmlns="http://www.w3.org/2000/svg" xmlns:xlink="http://www.w3.org/1999/xlink">
<g id="graph0" class="graph" transform="scale(1 1) rotate(0) translate(4 286)">
<title>dependencies</title>
<polygon fill="#ffffff" stroke="transparent" points="-4,4 -4,-286 1027,-286 1027,4 -4,4"/>
<text text-anchor="start" x="490.5091" y="-42.4" font-family="sans-serif" font-weight="bold" font-size="14.00" fill="#000000">Legend</text>
<polygon fill="#ffffb3" stroke="transparent" points="277.5,-10 277.5,-30 297.5,-30 297.5,-10 277.5,-10"/>
<text text-anchor="start" x="301.129" y="-15.4" font-family="sans-serif" font-size="14.00" fill="#000000"> &#160;Declarations</text>
<polygon fill="#8dd3c7" stroke="transparent" points="390.5,-10 390.5,-30 410.5,-30 410.5,-10 390.5,-10"/>
<text text-anchor="start" x="414.2251" y="-15.4" font-family="sans-serif" font-size="14.00" fill="#000000"> &#160;Module</text>
<polygon fill="#80b1d3" stroke="transparent" points="476.5,-10 476.5,-30 496.5,-30 496.5,-10 476.5,-10"/>
<text text-anchor="start" x="500.2812" y="-15.4" font-family="sans-serif" font-size="14.00" fill="#000000"> &#160;Bootstrap</text>
<polygon fill="#fdb462" stroke="transparent" points="573.5,-10 573.5,-30 593.5,-30 593.5,-10 573.5,-10"/>
<text text-anchor="start" x="597.1732" y="-15.4" font-family="sans-serif" font-size="14.00" fill="#000000"> &#160;Providers</text>
<polygon fill="#fb8072" stroke="transparent" points="669.5,-10 669.5,-30 689.5,-30 689.5,-10 669.5,-10"/>
<text text-anchor="start" x="693.2258" y="-15.4" font-family="sans-serif" font-size="14.00" fill="#000000"> &#160;Exports</text>
<g id="clust1" class="cluster">
<title>cluster_AppModule</title>
<polygon fill="none" stroke="#000000" stroke-dasharray="1,5" points="8,-70 8,-274 671,-274 671,-70 8,-70"/>
</g>
<g id="clust3" class="cluster">
<title>cluster_AppModule_imports</title>
<polygon fill="none" stroke="#000000" points="16,-78 16,-130 663,-130 663,-78 16,-78"/>
</g>
<g id="clust5" class="cluster">
<title>cluster_AppModule_bootstrap</title>
<polygon fill="none" stroke="#000000" points="274,-214 274,-266 398,-266 398,-214 274,-214"/>
</g>
<g id="clust7" class="cluster">
<title>cluster_AppRoutingModule</title>
<polygon fill="none" stroke="#000000" stroke-dasharray="1,5" points="679,-138 679,-206 1015,-206 1015,-138 679,-138"/>
</g>
<g id="clust9" class="cluster">
<title>cluster_AppRoutingModule_imports</title>
<polygon fill="none" stroke="#000000" points="813,-146 813,-198 1007,-198 1007,-146 813,-146"/>
</g>
<g id="clust10" class="cluster">
<title>cluster_AppRoutingModule_exports</title>
<polygon fill="none" stroke="#000000" points="687,-146 687,-198 805,-198 805,-146 687,-146"/>
</g>
<!-- BrowserModule -->
<g id="node1" class="node">
<title>BrowserModule</title>
<polygon fill="#8dd3c7" stroke="#000000" points="508.4734,-122 505.4734,-126 484.4734,-126 481.4734,-122 401.5266,-122 401.5266,-86 508.4734,-86 508.4734,-122"/>
<text text-anchor="middle" x="455" y="-99.8" font-family="Times,serif" font-size="14.00" fill="#000000">BrowserModule</text>
</g>
<!-- AppModule -->
<g id="node6" class="node">
<title>AppModule</title>
<polygon fill="#8dd3c7" stroke="#000000" points="377.6571,-190 374.6571,-194 353.6571,-194 350.6571,-190 294.3429,-190 294.3429,-154 377.6571,-154 377.6571,-190"/>
<text text-anchor="middle" x="336" y="-167.8" font-family="Times,serif" font-size="14.00" fill="#000000">AppModule</text>
</g>
<!-- BrowserModule&#45;&gt;AppModule -->
<g id="edge1" class="edge">
<title>BrowserModule&#45;&gt;AppModule</title>
<path fill="none" stroke="#000000" d="M455,-122.2667C455,-140.5552 455,-166 455,-166 455,-166 387.9549,-166 387.9549,-166"/>
<polygon fill="#000000" stroke="#000000" points="387.955,-162.5001 377.9549,-166 387.9549,-169.5001 387.955,-162.5001"/>
</g>
<!-- FormsModule -->
<g id="node2" class="node">
<title>FormsModule</title>
<polygon fill="#8dd3c7" stroke="#000000" points="383.8288,-122 380.8288,-126 359.8288,-126 356.8288,-122 288.1712,-122 288.1712,-86 383.8288,-86 383.8288,-122"/>
<text text-anchor="middle" x="336" y="-99.8" font-family="Times,serif" font-size="14.00" fill="#000000">FormsModule</text>
</g>
<!-- FormsModule&#45;&gt;AppModule -->
<g id="edge2" class="edge">
<title>FormsModule&#45;&gt;AppModule</title>
<path fill="none" stroke="#000000" d="M336,-122.2228C336,-122.2228 336,-143.7269 336,-143.7269"/>
<polygon fill="#000000" stroke="#000000" points="332.5001,-143.7269 336,-153.7269 339.5001,-143.727 332.5001,-143.7269"/>
</g>
<!-- ReactiveFormsModule -->
<g id="node3" class="node">
<title>ReactiveFormsModule</title>
<polygon fill="#8dd3c7" stroke="#000000" points="270.3047,-122 267.3047,-126 246.3047,-126 243.3047,-122 125.6953,-122 125.6953,-86 270.3047,-86 270.3047,-122"/>
<text text-anchor="middle" x="198" y="-99.8" font-family="Times,serif" font-size="14.00" fill="#000000">ReactiveFormsModule</text>
</g>
<!-- ReactiveFormsModule&#45;&gt;AppModule -->
<g id="edge3" class="edge">
<title>ReactiveFormsModule&#45;&gt;AppModule</title>
<path fill="none" stroke="#000000" d="M198,-122.2667C198,-140.5552 198,-166 198,-166 198,-166 284.221,-166 284.221,-166"/>
<polygon fill="#000000" stroke="#000000" points="284.221,-169.5001 294.221,-166 284.2209,-162.5001 284.221,-169.5001"/>
</g>
<!-- HttpModule -->
<g id="node4" class="node">
<title>HttpModule</title>
<polygon fill="#8dd3c7" stroke="#000000" points="108.4387,-122 105.4387,-126 84.4387,-126 81.4387,-122 23.5613,-122 23.5613,-86 108.4387,-86 108.4387,-122"/>
<text text-anchor="middle" x="66" y="-99.8" font-family="Times,serif" font-size="14.00" fill="#000000">HttpModule</text>
</g>
<!-- HttpModule&#45;&gt;AppModule -->
<g id="edge4" class="edge">
<title>HttpModule&#45;&gt;AppModule</title>
<path fill="none" stroke="#000000" d="M66,-122.2921C66,-144.2057 66,-178 66,-178 66,-178 284.1087,-178 284.1087,-178"/>
<polygon fill="#000000" stroke="#000000" points="284.1088,-181.5001 294.1087,-178 284.1087,-174.5001 284.1088,-181.5001"/>
</g>
<!-- AppRoutingModule -->
<g id="node5" class="node">
<title>AppRoutingModule</title>
<polygon fill="#8dd3c7" stroke="#000000" points="655.2744,-122 652.2744,-126 631.2744,-126 628.2744,-122 526.7256,-122 526.7256,-86 655.2744,-86 655.2744,-122"/>
<text text-anchor="middle" x="591" y="-99.8" font-family="Times,serif" font-size="14.00" fill="#000000">AppRoutingModule</text>
</g>
<!-- AppRoutingModule&#45;&gt;AppModule -->
<g id="edge5" class="edge">
<title>AppRoutingModule&#45;&gt;AppModule</title>
<path fill="none" stroke="#000000" d="M591,-122.2921C591,-144.2057 591,-178 591,-178 591,-178 387.8225,-178 387.8225,-178"/>
<polygon fill="#000000" stroke="#000000" points="387.8226,-174.5001 377.8225,-178 387.8225,-181.5001 387.8226,-174.5001"/>
</g>
<!-- RouterModule  -->
<g id="node9" class="node">
<title>RouterModule </title>
<polygon fill="#fb8072" stroke="#000000" points="796.6523,-190 695.3477,-190 695.3477,-154 796.6523,-154 796.6523,-190"/>
<text text-anchor="middle" x="746" y="-167.8" font-family="Times,serif" font-size="14.00" fill="#000000">RouterModule </text>
</g>
<!-- AppRoutingModule&#45;&gt;RouterModule  -->
<g id="edge8" class="edge">
<title>AppRoutingModule&#45;&gt;RouterModule </title>
<path fill="none" stroke="#000000" stroke-dasharray="5,2" d="M655.3874,-110C697.9734,-110 746,-110 746,-110 746,-110 746,-143.7333 746,-143.7333"/>
<polygon fill="#000000" stroke="#000000" points="742.5001,-143.7333 746,-153.7333 749.5001,-143.7333 742.5001,-143.7333"/>
</g>
<!-- AppComponent  -->
<g id="node7" class="node">
<title>AppComponent </title>
<polygon fill="#80b1d3" stroke="#000000" points="390.439,-258 281.561,-258 281.561,-222 390.439,-222 390.439,-258"/>
<text text-anchor="middle" x="336" y="-235.8" font-family="Times,serif" font-size="14.00" fill="#000000">AppComponent </text>
</g>
<!-- AppModule&#45;&gt;AppComponent  -->
<g id="edge6" class="edge">
<title>AppModule&#45;&gt;AppComponent </title>
<path fill="none" stroke="#000000" stroke-dasharray="1,5" d="M336,-190.2228C336,-190.2228 336,-211.7269 336,-211.7269"/>
<polygon fill="#000000" stroke="#000000" points="332.5001,-211.7269 336,-221.7269 339.5001,-211.727 332.5001,-211.7269"/>
</g>
<!-- RouterModule.forRoot(args) -->
<g id="node8" class="node">
<title>RouterModule.forRoot(args)</title>
<polygon fill="#8dd3c7" stroke="#000000" points="998.8419,-190 995.8419,-194 974.8419,-194 971.8419,-190 821.1581,-190 821.1581,-154 998.8419,-154 998.8419,-190"/>
<text text-anchor="middle" x="910" y="-167.8" font-family="Times,serif" font-size="14.00" fill="#000000">RouterModule.forRoot(args)</text>
</g>
<!-- RouterModule.forRoot(args)&#45;&gt;AppRoutingModule -->
<g id="edge7" class="edge">
<title>RouterModule.forRoot(args)&#45;&gt;AppRoutingModule</title>
<path fill="none" stroke="#000000" d="M910,-153.7079C910,-131.7943 910,-98 910,-98 910,-98 665.5544,-98 665.5544,-98"/>
<polygon fill="#000000" stroke="#000000" points="665.5544,-94.5001 655.5544,-98 665.5544,-101.5001 665.5544,-94.5001"/>
</g>
</g>
</svg>
